<svg width="64" height="64" viewBox="0 0 64 64" fill="none" xmlns="http://www.w3.org/2000/svg">
  <rect width="64" height="64" rx="16" fill="#28235F"/>
  <path d="M31.5455 8.07403C33.0504 7.79809 35.7311 8.34175 37.1608 8.90997C40.2147 10.1386 42.6641 12.5199 43.9811 15.5389C45.6289 19.3755 45.1228 23.014 43.6393 26.7791C44.055 26.4176 44.453 26.0462 44.8894 25.7088C47.587 23.5866 51.0224 22.6352 54.4265 23.0682C57.755 23.4964 60.7724 25.2446 62.8014 27.9201C64.8379 30.5928 65.7324 33.965 65.2877 37.2966C64.8031 40.6198 63.0325 43.6202 60.3577 45.6482C57.7045 47.6532 54.0825 48.518 50.8049 48.0544C53.8745 49.959 56.0893 52.2356 57.1896 55.7616C58.1588 58.8994 57.8237 62.2958 56.2601 65.1834C54.6829 68.1574 51.9885 70.3834 48.7717 71.369C45.5451 72.3328 42.0685 71.983 39.0975 70.3962C35.7351 68.5654 33.7682 65.6598 32.7166 62.0428L32.4628 61.0232C31.7195 64.5849 29.8652 67.7396 26.82 69.7908C23.9828 71.662 20.5196 72.3302 17.191 71.6462C13.8469 70.965 11.124 68.9894 9.23014 66.158C6.0101 61.3666 6.62048 55.0848 10.5251 50.8788C11.6389 49.679 12.7124 48.9506 14.0583 48.0624C13.8325 48.089 13.6058 48.1074 13.3786 48.119C9.71902 48.3404 6.4293 47.3846 3.66386 44.91C1.18134 42.6572 -0.30734 39.5112 -0.47678 36.162C-0.615488 32.8074 0.57763 29.534 2.84352 27.0584C5.10416 24.5659 8.27668 23.0926 11.6382 22.9744C15.4163 22.8186 18.565 24.2599 21.2924 26.7889C20.618 25.1045 20.1978 23.7659 20.0072 21.9549C19.6192 18.5818 20.6188 15.1957 22.7748 12.574C25.0626 9.78871 28.0076 8.42055 31.5455 8.07403ZM31.944 36.0994C28.708 36.3814 26.3236 39.2504 26.6354 42.4862C26.9472 45.7216 29.8352 48.0818 33.065 47.74C36.2532 47.4022 38.574 44.5564 38.2662 41.3638C37.9582 38.1718 35.1374 35.8214 31.944 36.0994Z" fill="#B7B0D6" transform="translate(0 -8)"/>
  <circle cx="32" cy="32" r="5.7" fill="#07070A"/>
</svg>
