<svg width="34" height="34" viewBox="0 0 34 34" fill="none" xmlns="http://www.w3.org/2000/svg">
<path d="M15.5564 13.4776C15.4557 13.4811 15.3554 13.4644 15.2613 13.4283C15.1673 13.3922 15.0815 13.3376 15.009 13.2676C14.9365 13.1977 14.8789 13.1138 14.8396 13.0211C14.8002 12.9284 14.7799 12.8287 14.7799 12.728C14.7799 12.6273 14.8002 12.5276 14.8396 12.4349C14.8789 12.3422 14.9365 12.2584 15.009 12.1884C15.0815 12.1185 15.1673 12.0638 15.2613 12.0278C15.3554 11.9917 15.4557 11.9749 15.5564 11.9785L21.2132 11.9785C21.412 11.9786 21.6025 12.0576 21.7431 12.1982C21.8836 12.3387 21.9626 12.5293 21.9627 12.728L21.9627 18.3849C21.9663 18.4855 21.9495 18.5859 21.9135 18.6799C21.8774 18.7739 21.8228 18.8598 21.7528 18.9322C21.6829 19.0047 21.599 19.0623 21.5063 19.1017C21.4136 19.141 21.3139 19.1613 21.2132 19.1613C21.1125 19.1613 21.0128 19.141 20.9201 19.1017C20.8274 19.0623 20.7436 19.0047 20.6736 18.9322C20.6037 18.8598 20.549 18.7739 20.513 18.6799C20.4769 18.5859 20.4601 18.4855 20.4637 18.3849L20.4637 14.5382L13.6118 21.3901C13.4712 21.5307 13.2804 21.6097 13.0815 21.6097C12.8826 21.6097 12.6918 21.5307 12.5512 21.3901C12.4105 21.2494 12.3315 21.0587 12.3315 20.8597C12.3315 20.6608 12.4105 20.4701 12.5512 20.3294L19.403 13.4776L15.5564 13.4776Z" fill="black"/>
</svg>
