<svg width="33" height="32" viewBox="0 0 33 32" fill="none" xmlns="http://www.w3.org/2000/svg">
<path d="M16.0162 0.0370148C16.7686 -0.100958 18.109 0.170877 18.8238 0.454984C20.3508 1.0693 21.5755 2.25997 22.234 3.76944C23.0579 5.68775 22.8048 7.507 22.0631 9.38955C22.2709 9.20874 22.4699 9.02308 22.6881 8.8544C24.0369 7.79328 25.7546 7.31762 27.4566 7.53409C29.1209 7.7482 30.6296 8.62232 31.6441 9.95987C32.6623 11.2964 33.1096 12.9825 32.8873 14.6483C32.6451 16.3099 31.7598 17.8101 30.4224 18.8241C29.0959 19.8266 27.2849 20.259 25.6461 20.0272C27.1809 20.9795 28.2883 22.1178 28.8384 23.8808C29.323 25.4497 29.1554 27.1479 28.3736 28.5917C27.5851 30.0787 26.2379 31.1917 24.6295 31.6845C23.0162 32.1664 21.2779 31.9915 19.7925 31.1981C18.1113 30.2827 17.1279 28.8299 16.6021 27.0214L16.4752 26.5116C16.1036 28.2926 15.1765 29.8698 13.6539 30.8954C12.2353 31.831 10.5036 32.1651 8.83942 31.8231C7.16734 31.4825 5.80588 30.4947 4.85895 29.079C3.24893 26.6833 3.55412 23.5424 5.50641 21.4394C6.06333 20.8395 6.60006 20.4753 7.27301 20.0312C7.16012 20.0445 7.04674 20.0537 6.93317 20.0595C5.10333 20.1702 3.45847 19.6923 2.07575 18.455C0.834493 17.3286 0.0901541 15.7556 0.00543553 14.081C-0.0639168 12.4037 0.532642 10.767 1.66559 9.5292C2.79601 8.28297 4.38227 7.54683 6.06305 7.48721C7.95212 7.40927 9.52649 8.12996 10.8902 9.39444C10.553 8.55224 10.3429 7.88295 10.2476 6.97744C10.0536 5.29088 10.5534 3.59786 11.6314 2.28701C12.7753 0.894353 14.2478 0.210277 16.0162 0.0370148ZM16.2154 14.0497C14.5974 14.1907 13.4052 15.6252 13.5611 17.2431C13.717 18.8608 15.161 20.0409 16.7759 19.87C18.37 19.7011 19.5304 18.2783 19.3765 16.6815C19.2225 15.085 17.8121 13.9106 16.2154 14.0497Z" fill="#FEFEFE"/>
</svg>
