<svg width="16" height="16" viewBox="0 0 16 16" fill="none" xmlns="http://www.w3.org/2000/svg">
<path d="M13.8046 4.19519C13.9296 4.32021 13.9998 4.48975 13.9998 4.66652C13.9998 4.8433 13.9296 5.01284 13.8046 5.13786L7.13795 11.8045C7.01293 11.9295 6.84339 11.9997 6.66661 11.9997C6.48984 11.9997 6.3203 11.9295 6.19528 11.8045L2.86195 8.47119C2.74051 8.34546 2.67331 8.17705 2.67483 8.00226C2.67635 7.82746 2.74646 7.66025 2.87007 7.53665C2.99367 7.41304 3.16088 7.34293 3.33568 7.34141C3.51048 7.33989 3.67888 7.40709 3.80461 7.52852L6.66661 10.3905L12.8619 4.19519C12.987 4.07021 13.1565 4 13.3333 4C13.5101 4 13.6796 4.07021 13.8046 4.19519Z" fill="white"/>
</svg>
